<svg width="118" height="91" viewBox="0 0 118 91" fill="none" xmlns="http://www.w3.org/2000/svg">
<path d="M6.0204 87.2959C6.0204 85.6335 4.67269 84.2857 3.0102 84.2857C1.34771 84.2857 1.02601e-06 85.6335 6.60966e-07 87.296C2.95924e-07 88.9584 1.34771 90.3062 3.0102 90.3062C4.67269 90.3062 6.0204 88.9584 6.0204 87.2959Z" fill="#FB5859"/>
<path d="M24.6837 87.296C24.6837 85.6335 23.336 84.2858 21.6735 84.2857C20.011 84.2857 18.6633 85.6335 18.6633 87.296C18.6633 88.9584 20.011 90.3062 21.6735 90.3062C23.336 90.3062 24.6837 88.9584 24.6837 87.296Z" fill="#FB5859"/>
<path d="M43.3468 87.296C43.3468 85.6335 41.9991 84.2857 40.3366 84.2857C38.6741 84.2857 37.3264 85.6335 37.3264 87.296C37.3264 88.9584 38.6741 90.3062 40.3366 90.3062C41.9991 90.3062 43.3468 88.9584 43.3468 87.296Z" fill="#FB5859"/>
<path d="M62.0099 87.296C62.0099 85.6335 60.6622 84.2857 58.9997 84.2857C57.3372 84.2857 55.9895 85.6335 55.9895 87.296C55.9895 88.9584 57.3372 90.3062 58.9997 90.3062C60.6622 90.3062 62.0099 88.9584 62.0099 87.296Z" fill="#FB5859"/>
<path d="M80.6735 87.296C80.6735 85.6335 79.3258 84.2857 77.6633 84.2857C76.0008 84.2857 74.6531 85.6335 74.6531 87.296C74.6531 88.9584 76.0008 90.3062 77.6633 90.3062C79.3258 90.3062 80.6735 88.9584 80.6735 87.296Z" fill="#FB5859"/>
<path d="M99.3366 87.296C99.3366 85.6335 97.9888 84.2857 96.3264 84.2857C94.6639 84.2857 93.3162 85.6335 93.3162 87.296C93.3162 88.9584 94.6639 90.3062 96.3264 90.3062C97.9888 90.3062 99.3366 88.9584 99.3366 87.296Z" fill="#FB5859"/>
<path d="M118 87.296C118 85.6335 116.652 84.2858 114.99 84.2858C113.327 84.2857 111.979 85.6335 111.979 87.296C111.979 88.9584 113.327 90.3062 114.99 90.3062C116.652 90.3062 118 88.9584 118 87.296Z" fill="#FB5859"/>
<path d="M6.0204 70.439C6.0204 68.7765 4.67269 67.4288 3.0102 67.4288C1.34771 67.4288 5.25329e-07 68.7765 3.38423e-07 70.439C1.51517e-07 72.1015 1.34771 73.4492 3.0102 73.4492C4.67269 73.4492 6.0204 72.1015 6.0204 70.439Z" fill="#FB5859"/>
<path d="M24.6837 70.439C24.6837 68.7765 23.336 67.4288 21.6735 67.4288C20.011 67.4288 18.6633 68.7765 18.6633 70.439C18.6633 72.1015 20.011 73.4492 21.6735 73.4492C23.336 73.4492 24.6837 72.1015 24.6837 70.439Z" fill="#FB5859"/>
<path d="M43.3468 70.439C43.3468 68.7765 41.9991 67.4288 40.3366 67.4288C38.6741 67.4288 37.3264 68.7765 37.3264 70.439C37.3264 72.1015 38.6741 73.4492 40.3366 73.4492C41.9991 73.4492 43.3468 72.1015 43.3468 70.439Z" fill="#FB5859"/>
<path d="M62.0099 70.439C62.0099 68.7765 60.6622 67.4288 58.9997 67.4288C57.3372 67.4288 55.9895 68.7765 55.9895 70.439C55.9895 72.1015 57.3372 73.4492 58.9997 73.4492C60.6622 73.4492 62.0099 72.1015 62.0099 70.439Z" fill="#FB5859"/>
<path d="M80.6735 70.439C80.6735 68.7765 79.3258 67.4288 77.6633 67.4288C76.0008 67.4288 74.6531 68.7765 74.6531 70.439C74.6531 72.1015 76.0008 73.4492 77.6633 73.4492C79.3258 73.4492 80.6735 72.1015 80.6735 70.439Z" fill="#FB5859"/>
<path d="M99.3366 70.439C99.3366 68.7765 97.9888 67.4288 96.3264 67.4288C94.6639 67.4288 93.3162 68.7765 93.3162 70.439C93.3162 72.1015 94.6639 73.4492 96.3264 73.4492C97.9888 73.4492 99.3366 72.1015 99.3366 70.439Z" fill="#FB5859"/>
<path d="M118 70.439C118 68.7765 116.652 67.4288 114.99 67.4288C113.327 67.4288 111.979 68.7765 111.979 70.439C111.979 72.1015 113.327 73.4492 114.99 73.4492C116.652 73.4492 118 72.1015 118 70.439Z" fill="#FB5859"/>
<path d="M6.02041 53.5816C6.02041 51.9191 4.67269 50.5714 3.0102 50.5714C1.34771 50.5714 -3.17802e-06 51.9191 -2.04732e-06 53.5816C-9.16616e-07 55.2441 1.34771 56.5918 3.0102 56.5918C4.67269 56.5918 6.02041 55.2441 6.02041 53.5816Z" fill="#FB5859"/>
<path d="M24.6837 53.5816C24.6837 51.9191 23.336 50.5714 21.6735 50.5714C20.011 50.5714 18.6633 51.9191 18.6633 53.5816C18.6633 55.2441 20.011 56.5918 21.6735 56.5918C23.336 56.5918 24.6837 55.2441 24.6837 53.5816Z" fill="#FB5859"/>
<path d="M43.3468 53.5816C43.3468 51.9191 41.9991 50.5714 40.3366 50.5714C38.6741 50.5714 37.3264 51.9191 37.3264 53.5816C37.3264 55.2441 38.6741 56.5918 40.3366 56.5918C41.9991 56.5918 43.3468 55.2441 43.3468 53.5816Z" fill="#FB5859"/>
<path d="M62.0099 53.5816C62.0099 51.9191 60.6622 50.5714 58.9997 50.5714C57.3372 50.5714 55.9895 51.9191 55.9895 53.5816C55.9895 55.2441 57.3372 56.5918 58.9997 56.5918C60.6622 56.5918 62.0099 55.2441 62.0099 53.5816Z" fill="#FB5859"/>
<path d="M80.6735 53.5816C80.6735 51.9191 79.3258 50.5714 77.6633 50.5714C76.0008 50.5714 74.6531 51.9191 74.6531 53.5816C74.6531 55.2441 76.0008 56.5918 77.6633 56.5918C79.3258 56.5918 80.6735 55.2441 80.6735 53.5816Z" fill="#FB5859"/>
<path d="M99.3366 53.5816C99.3366 51.9191 97.9888 50.5714 96.3264 50.5714C94.6639 50.5714 93.3162 51.9191 93.3162 53.5816C93.3162 55.2441 94.6639 56.5918 96.3264 56.5918C97.9888 56.5918 99.3366 55.2441 99.3366 53.5816Z" fill="#FB5859"/>
<path d="M118 53.5816C118 51.9191 116.652 50.5714 114.99 50.5714C113.327 50.5714 111.979 51.9191 111.979 53.5816C111.979 55.2441 113.327 56.5918 114.99 56.5918C116.652 56.5918 118 55.2441 118 53.5816Z" fill="#FB5859"/>
<path d="M6.0204 36.7247C6.0204 35.0622 4.67269 33.7145 3.0102 33.7145C1.34771 33.7145 5.58479e-07 35.0622 3.59779e-07 36.7247C1.61078e-07 38.3872 1.34771 39.7349 3.0102 39.7349C4.67269 39.7349 6.0204 38.3872 6.0204 36.7247Z" fill="#FB5859"/>
<path d="M24.6837 36.7247C24.6837 35.0622 23.336 33.7145 21.6735 33.7145C20.011 33.7145 18.6633 35.0622 18.6633 36.7247C18.6633 38.3872 20.011 39.7349 21.6735 39.7349C23.336 39.7349 24.6837 38.3872 24.6837 36.7247Z" fill="#FB5859"/>
<path d="M43.3468 36.7247C43.3468 35.0622 41.9991 33.7145 40.3366 33.7145C38.6741 33.7145 37.3264 35.0622 37.3264 36.7247C37.3264 38.3872 38.6741 39.7349 40.3366 39.7349C41.9991 39.7349 43.3468 38.3872 43.3468 36.7247Z" fill="#FB5859"/>
<path d="M62.0099 36.7247C62.0099 35.0622 60.6622 33.7145 58.9997 33.7145C57.3372 33.7145 55.9895 35.0622 55.9895 36.7247C55.9895 38.3872 57.3372 39.7349 58.9997 39.7349C60.6622 39.7349 62.0099 38.3872 62.0099 36.7247Z" fill="#FB5859"/>
<path d="M80.6735 36.7247C80.6735 35.0622 79.3258 33.7145 77.6633 33.7145C76.0008 33.7145 74.6531 35.0622 74.6531 36.7247C74.6531 38.3872 76.0008 39.7349 77.6633 39.7349C79.3258 39.7349 80.6735 38.3872 80.6735 36.7247Z" fill="#FB5859"/>
<path d="M99.3366 36.7247C99.3366 35.0622 97.9888 33.7145 96.3264 33.7145C94.6639 33.7145 93.3162 35.0622 93.3162 36.7247C93.3162 38.3872 94.6639 39.7349 96.3264 39.7349C97.9888 39.7349 99.3366 38.3872 99.3366 36.7247Z" fill="#FB5859"/>
<path d="M118 36.7247C118 35.0622 116.652 33.7145 114.99 33.7145C113.327 33.7145 111.979 35.0622 111.979 36.7247C111.979 38.3872 113.327 39.7349 114.99 39.7349C116.652 39.7349 118 38.3872 118 36.7247Z" fill="#FB5859"/>
<path d="M6.02041 19.8672C6.02041 18.2048 4.67269 16.857 3.0102 16.857C1.34771 16.857 -2.91527e-06 18.2047 -1.87805e-06 19.8672C-8.40832e-07 21.5297 1.34771 22.8774 3.0102 22.8774C4.67269 22.8774 6.02041 21.5297 6.02041 19.8672Z" fill="#FB5859"/>
<path d="M24.6837 19.8672C24.6837 18.2048 23.336 16.857 21.6735 16.857C20.011 16.857 18.6633 18.2048 18.6633 19.8672C18.6633 21.5297 20.011 22.8774 21.6735 22.8774C23.336 22.8774 24.6837 21.5297 24.6837 19.8672Z" fill="#FB5859"/>
<path d="M43.3468 19.8672C43.3468 18.2048 41.9991 16.857 40.3366 16.857C38.6741 16.857 37.3264 18.2048 37.3264 19.8672C37.3264 21.5297 38.6741 22.8774 40.3366 22.8774C41.9991 22.8774 43.3468 21.5297 43.3468 19.8672Z" fill="#FB5859"/>
<path d="M62.0099 19.8672C62.0099 18.2048 60.6622 16.857 58.9997 16.857C57.3372 16.857 55.9895 18.2047 55.9895 19.8672C55.9895 21.5297 57.3372 22.8774 58.9997 22.8774C60.6622 22.8774 62.0099 21.5297 62.0099 19.8672Z" fill="#FB5859"/>
<path d="M80.6735 19.8672C80.6735 18.2047 79.3258 16.857 77.6633 16.857C76.0008 16.857 74.6531 18.2048 74.6531 19.8672C74.6531 21.5297 76.0008 22.8774 77.6633 22.8774C79.3258 22.8774 80.6735 21.5297 80.6735 19.8672Z" fill="#FB5859"/>
<path d="M99.3366 19.8672C99.3366 18.2048 97.9888 16.857 96.3264 16.857C94.6639 16.857 93.3162 18.2048 93.3162 19.8672C93.3162 21.5297 94.6639 22.8774 96.3264 22.8774C97.9888 22.8774 99.3366 21.5297 99.3366 19.8672Z" fill="#FB5859"/>
<path d="M118 19.8672C118 18.2047 116.652 16.857 114.99 16.857C113.327 16.857 111.979 18.2047 111.979 19.8672C111.979 21.5297 113.327 22.8774 114.99 22.8774C116.652 22.8774 118 21.5297 118 19.8672Z" fill="#FB5859"/>
<path d="M6.0204 3.0103C6.0204 1.34782 4.67269 0.000102261 3.0102 0.00010282C1.34771 0.000103379 1.53378e-06 1.34782 9.8808e-07 3.01031C4.42378e-07 4.67279 1.34771 6.02051 3.0102 6.02051C4.67269 6.02051 6.0204 4.67279 6.0204 3.0103Z" fill="#FB5859"/>
<path d="M24.6837 3.01031C24.6837 1.34782 23.336 0.000103694 21.6735 0.000102386C20.011 0.000101078 18.6633 1.34781 18.6633 3.0103C18.6633 4.67279 20.011 6.02051 21.6735 6.02051C23.336 6.02051 24.6837 4.6728 24.6837 3.01031Z" fill="#FB5859"/>
<path d="M43.3468 3.0103C43.3468 1.34781 41.9991 0.000101718 40.3366 0.00010247C38.6741 0.000103223 37.3264 1.34782 37.3264 3.01031C37.3264 4.67279 38.6741 6.02051 40.3366 6.02051C41.9991 6.02051 43.3468 4.67279 43.3468 3.0103Z" fill="#FB5859"/>
<path d="M62.0099 3.0103C62.0099 1.34782 60.6622 0.000103245 58.9997 0.000103624C57.3372 0.000104002 55.9895 1.34782 55.9895 3.01031C55.9895 4.67279 57.3372 6.02051 58.9997 6.02051C60.6622 6.02051 62.0099 4.67279 62.0099 3.0103Z" fill="#FB5859"/>
<path d="M80.6735 3.01031C80.6735 1.34782 79.3258 0.000103134 77.6633 0.000102025C76.0008 0.000100916 74.6531 1.34781 74.6531 3.0103C74.6531 4.67279 76.0008 6.02051 77.6633 6.02051C79.3258 6.02051 80.6735 4.6728 80.6735 3.01031Z" fill="#FB5859"/>
<path d="M99.3366 3.0103C99.3366 1.34782 97.9888 0.000103762 96.3264 0.000104466C94.6639 0.00010517 93.3162 1.34782 93.3162 3.01031C93.3162 4.67279 94.6639 6.02051 96.3264 6.02051C97.9888 6.02051 99.3366 4.67279 99.3366 3.0103Z" fill="#FB5859"/>
<path d="M118 3.0103C118 1.34782 116.652 0.000100953 114.99 0.00010096C113.327 0.000100966 111.979 1.34782 111.979 3.0103C111.979 4.67279 113.327 6.02051 114.99 6.02051C116.652 6.02051 118 4.67279 118 3.0103Z" fill="#FB5859"/>
</svg>
