<svg width="21" height="21" viewBox="0 0 21 21" fill="none" xmlns="http://www.w3.org/2000/svg">
<path d="M6.9068 14.498H10.5248C10.5108 14.663 10.5028 14.83 10.5028 14.998C10.5028 16.199 10.9598 17.359 11.7748 18.486C11.2348 19.445 10.6178 19.997 10.0028 19.997C8.8058 19.997 7.6028 17.903 6.9648 14.793L6.9068 14.499V14.498Z" fill="#8506EA"/>
<path d="M6.67681 12.998H10.8768C11.3688 11.7426 12.3032 10.7107 13.5038 10.097V9.99899C13.5038 9.31299 13.4778 8.64399 13.4278 7.99899H6.57781L6.54481 8.48699C6.45792 9.99164 6.50209 11.501 6.67681 12.998Z" fill="#8506EA"/>
<path d="M16.0028 9.49799C17.5458 9.49799 18.9398 10.133 19.9378 11.156C20.0596 10.1029 20.0147 9.03714 19.8048 7.99799H14.9348L14.9728 8.65499C14.9878 8.96299 14.9968 9.27499 15.0018 9.58899C15.3258 9.52899 15.6618 9.49799 16.0028 9.49799Z" fill="#8506EA"/>
<path d="M1.06879 14.499H5.37479C5.73879 16.581 6.35779 18.353 7.16679 19.592C4.62432 18.8374 2.48424 17.1065 1.21479 14.778L1.06879 14.499Z" fill="#8506EA"/>
<path d="M0.201791 7.99799H5.07179C4.96718 9.46991 4.97821 10.9478 5.10479 12.418L5.16179 12.998H0.458791C-0.0477532 11.3798 -0.136509 9.65972 0.200791 7.99799H0.201791Z" fill="#8506EA"/>
<path d="M12.9468 0.574999L12.8388 0.404999C14.3252 0.846149 15.689 1.62597 16.823 2.68319C17.9571 3.74041 18.8306 5.04621 19.3748 6.498H14.7848C14.4688 4.082 13.8278 2.006 12.9468 0.574999Z" fill="#8506EA"/>
<path d="M7.04481 0.441999L7.16681 0.404999C6.28581 1.755 5.63081 3.734 5.28281 6.058L5.22081 6.498H0.632812C1.1693 5.06633 2.02604 3.77628 3.13754 2.72648C4.24904 1.67668 5.58586 0.894933 7.04581 0.440999L7.04481 0.441999Z" fill="#8506EA"/>
<path d="M10.0028 0C11.3218 0 12.6488 2.542 13.2168 6.183L13.2638 6.498H6.74182C7.28282 2.689 8.64682 0 10.0028 0Z" fill="#8506EA"/>
<path d="M20.5028 14.998C20.5028 13.8045 20.0287 12.6599 19.1848 11.816C18.3409 10.9721 17.1963 10.498 16.0028 10.498C14.8093 10.498 13.6647 10.9721 12.8208 11.816C11.9769 12.6599 11.5028 13.8045 11.5028 14.998C11.5028 16.861 12.9228 18.813 15.7028 20.898C15.7894 20.9629 15.8946 20.998 16.0028 20.998C16.111 20.998 16.2163 20.9629 16.3028 20.898C19.0828 18.813 20.5028 16.861 20.5028 14.998ZM14.5028 14.998C14.5028 14.6002 14.6608 14.2186 14.9421 13.9373C15.2235 13.656 15.605 13.498 16.0028 13.498C16.4006 13.498 16.7822 13.656 17.0635 13.9373C17.3448 14.2186 17.5028 14.6002 17.5028 14.998C17.5028 15.3958 17.3448 15.7773 17.0635 16.0586C16.7822 16.3399 16.4006 16.498 16.0028 16.498C15.605 16.498 15.2235 16.3399 14.9421 16.0586C14.6608 15.7773 14.5028 15.3958 14.5028 14.998Z" fill="#8506EA"/>
</svg>
