<svg width="166" height="32" viewBox="0 0 166 32" fill="none" xmlns="http://www.w3.org/2000/svg">
<path d="M0.324 2.556C0.324 2.052 0.648 1.62 1.296 1.26C1.944 0.875999 2.616 0.684 3.312 0.684C4.176 0.684 4.692 0.995999 4.86 1.62L10.548 21.132L13.608 8.604C13.824 7.74 14.592 7.308 15.912 7.308C17.208 7.308 17.964 7.74 18.18 8.604L21.24 21.132L26.928 1.62C27.096 0.995999 27.612 0.684 28.476 0.684C29.172 0.684 29.844 0.875999 30.492 1.26C31.14 1.62 31.464 2.052 31.464 2.556C31.464 2.7 31.44 2.844 31.392 2.988L24.264 25.632C23.904 26.688 22.884 27.216 21.204 27.216C20.484 27.216 19.836 27.084 19.26 26.82C18.684 26.532 18.336 26.136 18.216 25.632L15.912 15.912L13.572 25.632C13.452 26.136 13.104 26.532 12.528 26.82C11.952 27.084 11.304 27.216 10.584 27.216C9.84 27.216 9.18 27.084 8.604 26.82C8.028 26.532 7.668 26.136 7.524 25.632L0.396 2.988C0.348 2.844 0.324 2.7 0.324 2.556ZM33.9413 25.524V2.16C33.9413 1.704 34.1453 1.344 34.5533 1.08C34.9613 0.816 35.4413 0.684 35.9933 0.684H48.8093C49.2893 0.684 49.6493 0.887999 49.8893 1.296C50.1533 1.704 50.2852 2.172 50.2852 2.7C50.2852 3.276 50.1533 3.768 49.8893 4.176C49.6253 4.584 49.2653 4.788 48.8093 4.788H38.6213V11.988H44.0933C44.5493 11.988 44.9093 12.18 45.1733 12.564C45.4373 12.924 45.5693 13.356 45.5693 13.86C45.5693 14.316 45.4373 14.736 45.1733 15.12C44.9333 15.48 44.5733 15.66 44.0933 15.66H38.6213V22.896H48.8093C49.2653 22.896 49.6253 23.1 49.8893 23.508C50.1533 23.916 50.2852 24.408 50.2852 24.984C50.2852 25.512 50.1533 25.98 49.8893 26.388C49.6493 26.796 49.2893 27 48.8093 27H35.9933C35.4413 27 34.9613 26.868 34.5533 26.604C34.1453 26.34 33.9413 25.98 33.9413 25.524ZM53.0311 25.56V2.16C53.0311 1.704 53.2351 1.344 53.6431 1.08C54.0511 0.816 54.5311 0.684 55.0831 0.684H62.0311C66.8551 0.684 69.2671 2.796 69.2671 7.02C69.2671 9.948 68.2471 11.856 66.2071 12.744C67.4311 13.224 68.3551 13.908 68.9791 14.796C69.6031 15.66 69.9151 16.932 69.9151 18.612V19.368C69.9151 22.032 69.2671 23.976 67.9711 25.2C66.6751 26.4 64.9231 27 62.7151 27H55.0831C54.4831 27 53.9911 26.856 53.6071 26.568C53.2231 26.28 53.0311 25.944 53.0311 25.56ZM57.6751 22.896H61.7431C64.0711 22.896 65.2351 21.588 65.2351 18.972V18.396C65.2351 17.052 64.9351 16.08 64.3351 15.48C63.7591 14.88 62.8951 14.58 61.7431 14.58H57.6751V22.896ZM57.6751 10.908H61.7071C62.6431 10.908 63.3511 10.632 63.8311 10.08C64.3351 9.528 64.5871 8.772 64.5871 7.812C64.5871 6.876 64.3231 6.144 63.7951 5.616C63.2911 5.064 62.5831 4.788 61.6711 4.788H57.6751V10.908Z" fill="#253578"/>
<path d="M79.107 22.798V20.774C79.107 19.586 79.4883 18.5667 80.251 17.716C81.0283 16.8653 81.9596 16.44 83.045 16.44C83.6903 16.44 84.2623 16.6013 84.761 16.924C85.2596 17.2467 85.641 17.6427 85.905 18.112V11.116C85.905 10.896 86.015 10.72 86.235 10.588C86.455 10.4413 86.7336 10.368 87.071 10.368C87.4083 10.368 87.6796 10.4413 87.885 10.588C88.105 10.72 88.215 10.896 88.215 11.116V26.23C88.215 26.4207 88.105 26.5967 87.885 26.758C87.665 26.9193 87.3936 27 87.071 27C86.7923 27 86.543 26.9193 86.323 26.758C86.1176 26.5967 86.015 26.4207 86.015 26.23V25.46C85.7803 25.9293 85.377 26.3327 84.805 26.67C84.2476 27.0073 83.639 27.176 82.979 27.176C81.9523 27.176 81.0503 26.736 80.273 25.856C79.4956 24.9613 79.107 23.942 79.107 22.798ZM81.417 22.798C81.417 23.3993 81.637 23.942 82.077 24.426C82.517 24.8953 83.0376 25.13 83.639 25.13C84.211 25.13 84.7316 24.91 85.201 24.47C85.6703 24.0153 85.905 23.6267 85.905 23.304V20.774C85.905 20.0993 85.6776 19.5493 85.223 19.124C84.7683 18.6987 84.2476 18.486 83.661 18.486C83.0596 18.486 82.5316 18.7207 82.077 19.19C81.637 19.6593 81.417 20.1873 81.417 20.774V22.798ZM90.2574 22.798V20.708C90.2574 19.5493 90.7047 18.552 91.5994 17.716C92.494 16.8653 93.572 16.44 94.8334 16.44C96.036 16.44 97.0627 16.8287 97.9134 17.606C98.7787 18.3687 99.2114 19.3367 99.2114 20.51C99.2114 20.95 99.16 21.3093 99.0574 21.588C98.9547 21.852 98.7934 22.0427 98.5734 22.16C98.3534 22.2627 98.148 22.3287 97.9574 22.358C97.7667 22.3873 97.5174 22.402 97.2094 22.402H92.5674V22.908C92.5674 23.6413 92.8314 24.228 93.3594 24.668C93.8874 25.0933 94.5767 25.306 95.4274 25.306C96.0287 25.306 96.5934 25.1667 97.1214 24.888C97.664 24.6093 97.994 24.47 98.1114 24.47C98.3607 24.47 98.5734 24.5873 98.7494 24.822C98.9254 25.0567 99.0134 25.284 99.0134 25.504C99.0134 25.8707 98.6614 26.2447 97.9574 26.626C97.2534 26.9927 96.388 27.176 95.3614 27.176C93.8654 27.176 92.6407 26.7727 91.6874 25.966C90.734 25.1593 90.2574 24.1033 90.2574 22.798ZM92.5674 20.972H96.2194C96.542 20.972 96.7547 20.928 96.8574 20.84C96.9747 20.752 97.0334 20.576 97.0334 20.312C97.0334 19.7253 96.8207 19.2267 96.3954 18.816C95.97 18.4053 95.442 18.2 94.8114 18.2C94.1954 18.2 93.6674 18.398 93.2274 18.794C92.7874 19.1753 92.5674 19.6667 92.5674 20.268V20.972ZM100.061 17.474C100.061 17.21 100.23 16.9827 100.567 16.792C100.905 16.5867 101.242 16.484 101.579 16.484C101.946 16.484 102.181 16.6233 102.283 16.902L104.901 23.854L107.519 16.946C107.637 16.638 107.871 16.484 108.223 16.484C108.502 16.484 108.825 16.5867 109.191 16.792C109.558 16.9973 109.741 17.2247 109.741 17.474C109.741 17.5767 109.712 17.7013 109.653 17.848L105.957 26.758C105.825 27.066 105.473 27.22 104.901 27.22C104.329 27.22 103.977 27.066 103.845 26.758L100.171 17.848C100.098 17.7013 100.061 17.5767 100.061 17.474ZM110.689 22.798V20.708C110.689 19.5493 111.136 18.552 112.031 17.716C112.926 16.8653 114.004 16.44 115.265 16.44C116.468 16.44 117.494 16.8287 118.345 17.606C119.21 18.3687 119.643 19.3367 119.643 20.51C119.643 20.95 119.592 21.3093 119.489 21.588C119.386 21.852 119.225 22.0427 119.005 22.16C118.785 22.2627 118.58 22.3287 118.389 22.358C118.198 22.3873 117.949 22.402 117.641 22.402H112.999V22.908C112.999 23.6413 113.263 24.228 113.791 24.668C114.319 25.0933 115.008 25.306 115.859 25.306C116.46 25.306 117.025 25.1667 117.553 24.888C118.096 24.6093 118.426 24.47 118.543 24.47C118.792 24.47 119.005 24.5873 119.181 24.822C119.357 25.0567 119.445 25.284 119.445 25.504C119.445 25.8707 119.093 26.2447 118.389 26.626C117.685 26.9927 116.82 27.176 115.793 27.176C114.297 27.176 113.072 26.7727 112.119 25.966C111.166 25.1593 110.689 24.1033 110.689 22.798ZM112.999 20.972H116.651C116.974 20.972 117.186 20.928 117.289 20.84C117.406 20.752 117.465 20.576 117.465 20.312C117.465 19.7253 117.252 19.2267 116.827 18.816C116.402 18.4053 115.874 18.2 115.243 18.2C114.627 18.2 114.099 18.398 113.659 18.794C113.219 19.1753 112.999 19.6667 112.999 20.268V20.972ZM121.703 26.23V11.116C121.703 10.896 121.806 10.72 122.011 10.588C122.231 10.4413 122.51 10.368 122.847 10.368C123.17 10.368 123.441 10.4413 123.661 10.588C123.896 10.72 124.013 10.896 124.013 11.116V26.23C124.013 26.4207 123.896 26.5967 123.661 26.758C123.426 26.9193 123.155 27 122.847 27C122.524 27 122.253 26.9193 122.033 26.758C121.813 26.5967 121.703 26.4207 121.703 26.23ZM126.222 22.798V20.774C126.222 19.6153 126.669 18.6033 127.564 17.738C128.458 16.8727 129.529 16.44 130.776 16.44C131.993 16.44 133.056 16.8727 133.966 17.738C134.875 18.5887 135.33 19.6007 135.33 20.774V22.798C135.33 23.942 134.868 24.9613 133.944 25.856C133.034 26.736 131.978 27.176 130.776 27.176C129.558 27.176 128.495 26.736 127.586 25.856C126.676 24.976 126.222 23.9567 126.222 22.798ZM128.532 22.798C128.532 23.3993 128.752 23.942 129.192 24.426C129.632 24.8953 130.16 25.13 130.776 25.13C131.377 25.13 131.898 24.8953 132.338 24.426C132.792 23.942 133.02 23.3993 133.02 22.798V20.774C133.02 20.1873 132.792 19.6593 132.338 19.19C131.898 18.7207 131.377 18.486 130.776 18.486C130.16 18.486 129.632 18.7207 129.192 19.19C128.752 19.6593 128.532 20.1873 128.532 20.774V22.798ZM137.382 31.18V17.32C137.382 17.1 137.485 16.924 137.69 16.792C137.91 16.6453 138.174 16.572 138.482 16.572C138.79 16.572 139.047 16.6453 139.252 16.792C139.458 16.924 139.56 17.1 139.56 17.32V18.112C139.824 17.6427 140.213 17.2467 140.726 16.924C141.254 16.6013 141.848 16.44 142.508 16.44C143.608 16.44 144.54 16.8653 145.302 17.716C146.08 18.5667 146.468 19.586 146.468 20.774V22.798C146.468 23.942 146.08 24.9613 145.302 25.856C144.525 26.736 143.623 27.176 142.596 27.176C141.966 27.176 141.379 27.0073 140.836 26.67C140.308 26.3327 139.927 25.9293 139.692 25.46V31.18C139.692 31.3853 139.575 31.5613 139.34 31.708C139.106 31.8693 138.827 31.95 138.504 31.95C138.182 31.95 137.91 31.8693 137.69 31.708C137.485 31.5613 137.382 31.3853 137.382 31.18ZM139.692 23.304C139.692 23.6267 139.912 24.0153 140.352 24.47C140.807 24.91 141.328 25.13 141.914 25.13C142.501 25.13 143.022 24.8953 143.476 24.426C143.931 23.942 144.158 23.3993 144.158 22.798V20.774C144.158 20.1873 143.931 19.6593 143.476 19.19C143.022 18.7207 142.486 18.486 141.87 18.486C141.298 18.486 140.792 18.6987 140.352 19.124C139.912 19.5347 139.692 20.0847 139.692 20.774V23.304ZM148.093 22.798V20.708C148.093 19.5493 148.541 18.552 149.435 17.716C150.33 16.8653 151.408 16.44 152.669 16.44C153.872 16.44 154.899 16.8287 155.749 17.606C156.615 18.3687 157.047 19.3367 157.047 20.51C157.047 20.95 156.996 21.3093 156.893 21.588C156.791 21.852 156.629 22.0427 156.409 22.16C156.189 22.2627 155.984 22.3287 155.793 22.358C155.603 22.3873 155.353 22.402 155.045 22.402H150.403V22.908C150.403 23.6413 150.667 24.228 151.195 24.668C151.723 25.0933 152.413 25.306 153.263 25.306C153.865 25.306 154.429 25.1667 154.957 24.888C155.5 24.6093 155.83 24.47 155.947 24.47C156.197 24.47 156.409 24.5873 156.585 24.822C156.761 25.0567 156.849 25.284 156.849 25.504C156.849 25.8707 156.497 26.2447 155.793 26.626C155.089 26.9927 154.224 27.176 153.197 27.176C151.701 27.176 150.477 26.7727 149.523 25.966C148.57 25.1593 148.093 24.1033 148.093 22.798ZM150.403 20.972H154.055C154.378 20.972 154.591 20.928 154.693 20.84C154.811 20.752 154.869 20.576 154.869 20.312C154.869 19.7253 154.657 19.2267 154.231 18.816C153.806 18.4053 153.278 18.2 152.647 18.2C152.031 18.2 151.503 18.398 151.063 18.794C150.623 19.1753 150.403 19.6667 150.403 20.268V20.972ZM158.909 26.23V17.32C158.909 17.1 159.012 16.924 159.217 16.792C159.437 16.6453 159.709 16.572 160.031 16.572C160.325 16.572 160.574 16.6453 160.779 16.792C160.985 16.924 161.087 17.1 161.087 17.32V18.288C161.337 17.7747 161.711 17.342 162.209 16.99C162.723 16.6233 163.28 16.44 163.881 16.44H164.585C164.82 16.44 165.025 16.5427 165.201 16.748C165.377 16.9387 165.465 17.1733 165.465 17.452C165.465 17.7307 165.377 17.9727 165.201 18.178C165.025 18.3833 164.82 18.486 164.585 18.486H163.881C163.177 18.486 162.554 18.7867 162.011 19.388C161.483 19.9893 161.219 20.7667 161.219 21.72V26.23C161.219 26.4207 161.102 26.5967 160.867 26.758C160.633 26.9193 160.354 27 160.031 27C159.709 27 159.437 26.9193 159.217 26.758C159.012 26.5967 158.909 26.4207 158.909 26.23Z" fill="#545454"/>
</svg>
